<svg id="Layer_1" data-name="Layer 1" xmlns="http://www.w3.org/2000/svg" width="64px" height="64px" viewBox="0 0 562 521" transform="rotate(45)" ><defs><style>.cls-1{fill:#fff;}.cls-2{fill:red};</style></defs><title>1</title><polygon class="cls-1" points="186.31 294.3 216.73 262.7 279.94 323.63 249.49 355.23 186.31 294.3"/><path class="cls-1" d="M440,31a43.89,43.89,0,0,1,63.54,60.56l-.36.36-148.42,154-.25-.06-.09.39-54.21,56.28L268.66,272,237,241.62Z"/><path class="cls-2" d="M96.7,345.12A94.61,94.61,0,0,1,133,321.77l29-10.27,71.37,68.67-9.18,29.41a94,94,0,0,1-69.52,63.67L53.55,495.41l7.26-40.16a14.14,14.14,0,0,0,4.32.78l36.5-.67a89.08,89.08,0,0,0,79.14-51,14.63,14.63,0,1,0-26.41-12.58,60,60,0,0,1-53.23,34.28l-35.2.66,6-33.14A93.74,93.74,0,0,1,96.7,345.12Z"/></svg>
