<svg id="Layer_1" data-name="Layer 1" xmlns="http://www.w3.org/2000/svg" viewBox="0 0 562 521"><defs><style>.cls-1{fill:#fff;}</style></defs><title>1</title><path class="cls-1" d="M504,36.9c-11.91-11.9-31.12-2.26-45.51,6.46-14.81,9-34.3,23.45-57.93,43-50.38,41.69-107.68,96.31-154,142.7l0,0c-26,26.32-50.78,52.06-79.7,85.57a80.75,80.75,0,0,0-42.59,5.64l-.33.14a82.12,82.12,0,0,0-48.11,73.9v.13c0,35.3-6.09,63.68-12.15,73.48L51.92,486.77l22.15,1.57c5.43.39,11.13.58,17,.58,43.12,0,95.69-10.91,124-36.95l.08-.07c14.6-13.64,21.69-32.49,21.67-57.63a75.45,75.45,0,0,0-.55-9c33.38-28.92,59.08-53.57,85.83-79.88l0-.08C376.73,250.58,425.43,193,460.32,144.88c17.54-24.2,31.15-45.55,39.35-61.74,8.4-16.6,15.48-35.07,4.29-46.24ZM196.88,432.24c-19,17.44-60.78,29.24-102.3,29.84,5.06-17.82,8-42,8-67.62a55.21,55.21,0,0,1,32.16-49.54A52.18,52.18,0,0,1,170,342.79c1.48,0,13.88,3.09,24.3,13.49,22.28,22.24,19.14,60.47,2.59,76Zm30.85-75.15a79.59,79.59,0,0,0-14.47-19.81,77.6,77.6,0,0,0-18.63-13.78c17.45-19.87,36.37-40.3,55.69-60.11a159.18,159.18,0,0,1,19.88,16.85l.13.13A141.48,141.48,0,0,1,288,301.24c-20.26,19.69-40.45,38.39-60.29,55.85ZM431.38,138.92c-34.59,46.42-79.65,98.41-124.06,143.17a168.22,168.22,0,0,0-18.22-20.92,185.93,185.93,0,0,0-19.67-17c49.49-49.45,98.4-95,138-128.56C447.71,81.48,469.07,67.64,479.88,62c-9.32,22.62-33.87,57.27-48.5,76.9Zm0,0"/></svg>