<svg id="Layer_1" data-name="Layer 1" xmlns="http://www.w3.org/2000/svg" viewBox="0 0 562 521"><defs><style>.cls-1{fill:#fff;}</style></defs><title>1</title><path class="cls-1" d="M230.82,271.46l-51,50.26C145.79,321,98.65,333,78.3,399.67c-15.55,35.27-56.51,33.5-56.51,33.5,85,94.34,185.25,40.87,208.14,17.69,20.11-20.38,23-45.3,20.85-65.22l47.43-46.77Zm-23.5,157.07c-15.93,14.78-87.12,47.73-129,15.79,0,0,14.59-11.38,25.62-34.22,26.38-70.05,92.1-59.69,92.1-59.69l22.6,22.32c.23.22,16.88,29.68-11.3,55.8ZM525.75,47.18a48.38,48.38,0,0,0-67.81,0L253.86,248.72l67.39,67.39,204.5-202a46.91,46.91,0,0,0,0-66.95Zm0,0"/></svg>