<svg id="Layer_1" data-name="Layer 1" xmlns="http://www.w3.org/2000/svg" viewBox="0 0 562 521"><defs><style>.cls-1{fill:#fff;}</style></defs><title>1</title><path class="cls-1" d="M371.69,339.07l-59.28-34.76a62.53,62.53,0,0,0-9.69,1.95c-15.48,4.44-37.87,17.18-56.63,52.65-14.89,28.17-9.4,52.28-4.55,73.55,4.64,20.35,8.3,36.41-5.32,52.48a5.64,5.64,0,0,0,1.47,8.52,5.66,5.66,0,0,0,2.13.72c34.45,4.33,86-16,117.81-70.82,14.45-24.91,20.65-48.86,17.95-69.26a63.3,63.3,0,0,0-3.89-15Zm-58.1,3.75a11.27,11.27,0,0,1-5.91,6.31c-20,9.05-23.59,24.89-23.74,25.56a11.32,11.32,0,0,1-8.17,8.73c-.37.09-.75.18-1.13.24a11.5,11.5,0,0,1-3.88-.06,11.31,11.31,0,0,1-9-13.2c.21-1.13,5.62-27.82,36.59-41.84a12.57,12.57,0,0,1,1.75-.62,11.28,11.28,0,0,1,13.46,14.88Zm0,0"/><path class="cls-1" d="M510.4,30.63a26.2,26.2,0,0,0-34.81,8C470.75,45.73,356.66,214,342,239.33c-7.34,12.66-15.62,33.22-22.5,52l59.28,34.76c12.91-15.32,26.71-32.79,34.16-45.63C427.77,254.84,517,72.54,520.79,64.79A26.18,26.18,0,0,0,510.4,30.63Zm0,0"/><path class="cls-1" d="M225.68,402.88a58.34,58.34,0,0,0-15-3c-.84-.05-1.75-.07-2.69-.07-7.55,0-17,1.65-26.21,3.25-8.17,1.42-15.89,2.77-21.28,2.77-3.79,0-5.1-.7-5.52-1.06-4.58-5.75,2-21.35,4.87-28,.72-1.71,1.29-3.05,1.62-4,4.6-13.52,8-27.91,1.61-41.57-5.29-11.36-17.65-20.4-31.39-23a63,63,0,0,0-14.46-1.38c-4.83,0-10,.3-15,.6s-10.42.62-15.49.62c-17.45,0-27.49-4-33.57-13.28-11.27-17.9,2.27-50,16.17-63.32a2.26,2.26,0,0,0-2.89-3.45c-17.8,12.9-29.59,36.34-28.66,57,.5,11,4.74,26.31,22.13,36.67,9.36,5.57,24.51,6.74,39.14,7.88,14.41,1.12,29.31,2.28,33.9,7.87a6.91,6.91,0,0,1,1.39,5.49c-1,10.24-6,20.33-10.78,30.08-9.07,18.42-18.47,37.47-2.24,58.61,14.25,18.56,33.17,18.56,52.61,18.42l4.78,0c8.48,0,18.27.26,27.15,3.35,6.32,2.46,9.5,7.52,11,17.57a27.47,27.47,0,0,0,7.51,14.67,16.89,16.89,0,0,1,3.71-7.81c9.55-11.27,7.68-21.8,2.91-42.67-2.22-9.69-4.67-20.45-5.28-32.16Zm0,0"/></svg>