<?xml version="1.0" encoding="utf-8"?>
<!DOCTYPE svg PUBLIC "-//W3C//DTD SVG 1.1//EN" "http://www.w3.org/Graphics/SVG/1.1/DTD/svg11.dtd">
<svg version="1.1" id="Pointer" width="64" height="64"  xmlns="http://www.w3.org/2000/svg" xmlns:xlink="http://www.w3.org/1999/xlink" x="0px" y="0px"
	 viewBox="0 0 100 100" enable-background="new 0 0 100 100" xml:space="preserve">
<g id="Layer_1_1_">
	<polygon points="96.7,44.2 55.8,44.2 55.8,3.3 44.2,3.3 44.2,44.2 3.3,44.2 3.3,55.8 44.2,55.8 44.2,96.7 55.8,96.7 55.8,55.8 
		96.7,55.8 	"/>
</g>
<g id="Layer_3" display="none">
	<polygon display="inline" points="87.2,21.2 78.8,12.8 50,41.8 21.2,12.8 12.8,21.2 41.8,50 12.8,78.8 21.2,87.2 50,58.2 
		78.8,87.2 87.2,78.8 58.2,50 	"/>
</g>
<g id="Layer_2" display="none">
	<path display="inline" d="M50,9.2C27.5,9.2,9.2,27.5,9.2,50S27.5,90.8,50,90.8S90.8,72.5,90.8,50S72.5,9.2,50,9.2z M50,79.2
		c-16,0-29.2-13-29.2-29.2c0-16,13-29.2,29.2-29.2S79.2,34,79.2,50S66,79.2,50,79.2z"/>
</g>
</svg>
