<svg xmlns="http://www.w3.org/2000/svg" xmlns:xlink="http://www.w3.org/1999/xlink" xml:space="preserve" version="1.1" style="shape-rendering:geometricPrecision;text-rendering:geometricPrecision;image-rendering:optimizeQuality;" viewBox="0 0 60000 75000" x="0px" y="0px" fill-rule="evenodd" clip-rule="evenodd"><defs><style type="text/css">

    .fil0 {fill:#fff;fill-rule:nonzero}

  </style></defs><g><path class="fil0" d="M43156 34453c408,0 791,128 1123,353 -189,-596 -425,-1176 -670,-1751 -400,135 -835,264 -1301,388 -51,14 -103,27 -156,41 -618,540 -1147,1220 -1553,1930 -445,779 -739,1589 -836,2289 -49,998 341,1844 731,2689 96,209 193,418 275,608 275,639 234,1092 183,1651 -13,140 -26,287 -34,458l0 7 -610 14867 873 125 1026 -12672c16,-208 198,-364 407,-348 190,15 336,167 348,352l1456 12864 1313 -93 -125 -15166 0 0c-7,-97 -16,-184 -26,-275 -54,-509 -116,-1095 203,-1547 647,-916 846,-2323 771,-3800 -95,-1867 -629,-3823 -1261,-5072 -284,152 -609,300 -972,444 259,609 508,1228 710,1880 221,715 381,1462 427,2266 11,114 17,231 17,349 0,765 -249,1462 -650,1972l1 1c-422,535 -1011,865 -1669,865 -657,0 -1246,-331 -1667,-865l-1 -1 -1 1c-401,-509 -650,-1207 -650,-1973 0,-765 249,-1463 651,-1973 422,-535 1011,-865 1667,-865zm5262 -24201c54,118 2,258 -116,313 -118,54 -258,2 -313,-116 -122,-268 -390,-450 -719,-539 -208,-56 -439,-75 -674,-55 -237,21 -475,80 -693,180 -432,197 -796,553 -938,1078 -34,126 -163,201 -289,167 -126,-34 -201,-163 -167,-289 183,-677 648,-1134 1199,-1385 272,-124 562,-197 849,-222 288,-25 575,-1 836,69 459,124 840,393 1026,799zm-16656 -8875c-126,-34 -201,-163 -167,-289 34,-126 163,-201 289,-167 563,151 1086,431 1522,868 392,393 710,910 919,1570 39,125 -30,257 -154,297 -125,39 -257,-30 -297,-154 -185,-585 -462,-1039 -802,-1379 -373,-373 -823,-614 -1310,-744zm-2878 1201c-129,21 -250,-65 -272,-194 -21,-129 65,-250 194,-272 1026,-175 2057,-179 2944,290 890,470 1615,1403 2014,3096 30,127 -49,254 -177,284 -127,30 -254,-49 -284,-177 -363,-1540 -1000,-2377 -1774,-2785 -776,-410 -1709,-401 -2647,-241zm-16995 10080c-120,52 -259,-4 -311,-124 -52,-120 4,-259 124,-311 689,-296 1432,-444 2169,-341 647,90 1284,371 1868,910 96,88 102,238 14,334 -88,96 -238,102 -334,14 -508,-469 -1057,-713 -1612,-790 -644,-89 -1302,43 -1918,308zm6593 25450c-77,-1138 255,-2072 592,-3022 88,-247 176,-495 253,-736 -272,-80 -520,-167 -742,-259 -455,1043 -837,2447 -976,3849 -125,1261 -53,2511 341,3470 402,979 396,1067 324,2064 -8,106 -16,224 -22,313l59 14434 1135 84 1324 -12268c11,-186 158,-340 350,-355 208,-16 390,141 405,349l932 12082 729 -110 -556 -14196c-6,-128 -20,-286 -33,-436 -46,-532 -83,-962 169,-1578 79,-193 144,-346 209,-498 237,-559 474,-1117 626,-1704 701,-2708 1466,-2880 3149,-3259 276,-62 580,-130 940,-227 255,-69 594,-179 841,-350 183,-126 315,-289 282,-494 -2,-12 -58,-36 -148,-65 -172,-57 -407,-71 -663,-30 -587,95 -1267,223 -1914,426 -621,196 -1206,459 -1628,828 -424,370 -914,871 -1268,1342 -230,306 -397,584 -433,774 -51,618 -264,1176 -583,1600 -391,519 -938,840 -1551,840 -613,0 -1161,-321 -1551,-840 -367,-488 -594,-1156 -594,-1887 0,-47 1,-95 3,-141zm1577 -3570c-88,279 -181,540 -272,799 -60,169 -120,337 -176,506 301,-205 646,-321 1014,-321 613,0 1161,321 1551,840 192,256 346,561 449,899 384,-501 895,-1022 1337,-1408 358,-312 795,-558 1268,-753 -1216,-44 -2329,-128 -3309,-248 -686,-84 -1309,-188 -1862,-313zm565 1741c-363,0 -699,205 -948,536 -272,362 -441,869 -441,1435 0,566 168,1073 441,1435 249,331 584,536 948,536 363,0 699,-205 948,-536 272,-362 441,-869 441,-1435 0,-566 -168,-1073 -441,-1435 -249,-331 -584,-536 -948,-536zm8925 -1182c3,15 6,30 9,46 90,561 -194,956 -598,1234 -341,234 -763,375 -1075,459 -343,92 -671,166 -969,233 -1373,309 -1998,449 -2583,2711 -167,646 -414,1227 -662,1810 -75,176 -149,352 -206,489 -181,441 -151,792 -113,1226 11,132 23,271 33,469l569 14538c8,194 -133,360 -321,388l0 1 -1466 221c-207,31 -399,-111 -430,-318 -2,-13 -3,-27 -4,-40l-648 -8402 -927 8586c-22,203 -200,351 -402,337l0 0 -1847 -137c-208,-15 -364,-194 -351,-402l-61 -14783c0,-9 0,-18 1,-27l-1 0c10,-142 16,-233 22,-318 61,-838 66,-912 -267,-1724 -445,-1084 -530,-2459 -394,-3831 149,-1501 563,-3010 1056,-4123 -401,-266 -627,-568 -650,-902 -1,-8 -1,-17 -1,-25l-1 0 0 -3284 -5181 -14046c-160,-375 -184,-846 -73,-1266 75,-285 214,-552 416,-759 215,-219 495,-368 840,-397 353,-31 770,67 1244,351 15,9 30,19 43,30l7786 5516 1 -1c418,286 708,413 905,362 190,-50 365,-291 563,-745l-1 0 5346 -13508c98,-305 248,-590 440,-799 168,-183 368,-311 597,-354 239,-45 490,2 744,173 220,148 443,393 662,762 8,13 14,26 20,40l6195 12785 0 0c183,358 347,552 508,580 163,29 385,-96 684,-374l-1 -1 6591 -6454c276,-272 671,-505 1050,-584 240,-50 480,-41 696,50 231,97 419,278 533,567 122,307 155,748 45,1357l-1268 14689c0,11 0,22 0,33l0 3302 0 0c15,380 -237,755 -714,1113 9,13 17,26 24,40 677,1326 1250,3413 1351,5398 83,1629 -153,3202 -907,4271 -156,221 -110,657 -70,1035 12,109 23,215 29,298l-1 0c1,8 1,16 1,24l128 15519 0 3c15,208 -142,389 -351,404l-2028 144 0 0c-202,14 -380,-133 -402,-336l-1060 -9368 -744 9188 0 0c-1,8 -1,16 -3,24 -29,207 -221,350 -428,321l-1609 -231 0 0c-190,-27 -332,-193 -324,-389l624 -15209 0 -11c8,-170 23,-335 37,-490 41,-452 74,-817 -127,-1285 -91,-212 -178,-401 -266,-590 -431,-934 -862,-1869 -798,-3059 1,-10 2,-21 3,-31 108,-797 435,-1710 930,-2577 244,-428 530,-846 851,-1236 -2390,517 -5375,932 -8623,1156l-1 0c-893,62 -1769,106 -2620,135zm-11151 -1860c52,1 104,13 154,38 53,26 98,62 132,106 674,291 1828,536 3329,719 2604,318 6179,379 10106,108l1 0c3803,-263 7234,-788 9748,-1431 6,-2 11,-3 17,-4 77,-20 154,-40 229,-60 2369,-629 3815,-1295 3777,-1850 -1,-8 -1,-17 -1,-25l-1 0 0 -2205c-734,535 -1972,1034 -3583,1461 -2578,684 -6160,1244 -10137,1519l-1 0c-3978,275 -7602,212 -10248,-111 -1764,-215 -3119,-570 -3903,-1043l0 2344c17,153 148,298 379,435zm25832 2548c-280,-355 -661,-575 -1076,-575 -415,0 -795,220 -1076,575 -300,380 -485,912 -485,1505 0,592 186,1124 487,1505l-1 1c280,355 661,575 1075,575 414,0 794,-220 1074,-575l1 1 1 -1c300,-380 485,-912 485,-1505 0,-593 -185,-1125 -485,-1505zm-25057 -15043c560,0 1063,268 1424,701 345,414 558,980 558,1601 0,621 -213,1188 -558,1601 -361,433 -864,701 -1424,701 -560,0 -1063,-268 -1424,-701 -345,-414 -558,-980 -558,-1601 0,-621 213,-1187 558,-1601 361,-433 864,-701 1424,-701zm844 1183c-219,-263 -518,-426 -844,-426 -326,0 -624,163 -844,426 -235,282 -381,678 -381,1119 0,441 146,837 381,1119 219,263 518,426 844,426 326,0 624,-163 844,-426 235,-282 381,-678 381,-1119 0,-441 -146,-837 -381,-1119zm22322 -2265c560,0 1063,268 1424,701 345,414 558,980 558,1601 0,621 -213,1187 -558,1601 -361,433 -864,701 -1424,701 -560,0 -1063,-268 -1424,-701 -345,-414 -558,-980 -558,-1601 0,-621 213,-1188 558,-1601 361,-433 864,-701 1424,-701zm844 1183c-219,-263 -518,-426 -844,-426 -326,0 -624,163 -844,426 -235,282 -381,678 -381,1119 0,441 146,837 381,1119 219,263 518,426 844,426 326,0 624,-163 844,-426 235,-282 381,-678 381,-1119 0,-441 -146,-837 -381,-1119zm-11027 892c0,209 -170,379 -379,379 -209,0 -379,-170 -379,-379 0,-207 -85,-394 -223,-529 -139,-137 -333,-221 -549,-221 -216,0 -409,85 -549,221 -138,135 -223,322 -223,529 0,519 214,988 560,1327 347,341 829,552 1362,552 533,0 1015,-211 1362,-552 346,-340 560,-809 560,-1327 0,-830 -343,-1582 -897,-2126 -556,-545 -1325,-883 -2176,-883 -851,0 -1620,337 -2176,883 -554,544 -897,1295 -897,2126 0,1142 472,2176 1234,2924 764,750 1821,1213 2989,1213 1169,0 2225,-464 2989,-1213 762,-748 1234,-1782 1234,-2924 0,-209 170,-379 379,-379 209,0 379,170 379,379 0,1352 -559,2576 -1462,3463 -902,885 -2146,1432 -3519,1432 -1373,0 -2617,-547 -3519,-1432 -903,-886 -1462,-2111 -1462,-3463 0,-1040 430,-1982 1125,-2664 693,-681 1650,-1102 2705,-1102 1055,0 2012,421 2705,1102 695,682 1125,1624 1125,2664 0,729 -301,1388 -788,1866 -485,476 -1154,771 -1892,771 -738,0 -1406,-295 -1892,-771 -487,-478 -788,-1137 -788,-1866 0,-417 172,-794 451,-1068 277,-272 658,-440 1078,-440 420,0 801,168 1078,440 279,273 451,651 451,1068zm-14160 7599l0 0 2 7 1 3 1 5 2 5 1 2c9,29 14,58 15,86 44,552 1567,1011 3995,1308 2604,318 6179,379 10106,108l1 0c3929,-271 7460,-823 9994,-1495 2287,-607 3714,-1249 3775,-1792l0 -83 0 0c0,-11 0,-22 1,-33l1271 -14713 1 0c1,-12 3,-24 5,-36 88,-474 76,-785 2,-973 -32,-82 -76,-129 -125,-149 -64,-27 -151,-26 -249,-6 -237,49 -492,203 -675,383l-6591 6454 -1 -1 -7 7c-488,457 -921,649 -1336,576 -418,-74 -756,-401 -1052,-983l1 0 -6199 -12794c-156,-261 -298,-423 -425,-509 -75,-50 -136,-67 -185,-58 -58,11 -120,55 -180,121 -114,124 -209,311 -276,520 -4,15 -9,29 -14,43l-5348 13513 -1 -1 -4 11c-299,689 -627,1072 -1071,1188 -438,114 -915,-55 -1520,-468l1 -1 -7796 -5523c-322,-192 -582,-260 -787,-242 -152,13 -274,78 -367,173 -106,108 -181,257 -224,422 -70,265 -57,556 40,780l0 0c3,6 5,13 8,19l5210 14124z"/></g><text x="0" y="60015" fill="#000000" font-size="5px" font-weight="bold" font-family="'Helvetica Neue', Helvetica, Arial-Unicode, Arial, Sans-serif">Created by Olena Panasovska</text><text x="0" y="60020" fill="#000000" font-size="5px" font-weight="bold" font-family="'Helvetica Neue', Helvetica, Arial-Unicode, Arial, Sans-serif">from the Noun Project</text></svg>
